<?xml version="1.0" encoding="UTF-8"?>
<svg id="Layer_2" data-name="Layer 2" xmlns="http://www.w3.org/2000/svg" viewBox="0 0 402.69 776.87">
  <defs>
    <style>
      .cls-1 {
        fill: #ffffff ;
      }
    </style>
  </defs>
  <path class="cls-1" d="M367.39,184.76c1.55,14.42-11.57,20.08-22.14,23s-28.02,1.16-32.89-12.36c-.75-3.2-1.63-6.45-2.67-9.73-11.16-35.49-39.39-73.23-109-73.23-129.8,0-115.5,134.44-115.5,134.44H31.03S9.62,56.96,201.06,56.96c106.11,0,146.83,58.33,162.06,110.35,1.74,5.93,3.13,11.77,4.26,17.44Z"/>
  <path class="cls-1" d="M369.63,244.91H33.06c-18.26,0-33.06,14.8-33.06,33.06v255.94c0,18.26,14.8,33.07,33.06,33.07H369.63c18.26,0,33.06-14.82,33.06-33.07v-255.94c0-18.26-14.8-33.06-33.06-33.06Zm-152.53,174.89v61.9h-.05c-.4,7.4-7.27,13.28-15.71,13.28s-15.31-5.87-15.71-13.28h-.05v-61.9c-7.81-5.17-12.96-14.1-12.96-24.22,0-16.01,12.86-28.97,28.72-28.97s28.72,12.97,28.72,28.97c0,10.12-5.15,19.05-12.96,24.22Z"/>
</svg>