<?xml version="1.0" encoding="UTF-8"?>
<svg id="Layer_2" data-name="Layer 2" xmlns="http://www.w3.org/2000/svg" viewBox="0 0 402.69 776.87">
  <defs>
    <style>
      .cls-1 {
        fill: #ffffff;
      }
    </style>
  </defs>
  <path class="cls-1" d="M371.39,247.18h-55.06s16.01-134.45-115.36-134.45S85.47,247.18,85.47,247.18H31.3S9.9,57.25,201.35,57.25s170.04,189.92,170.04,189.92Z"/>
  <path class="cls-1" d="M369.63,244.91H33.06c-18.26,0-33.06,14.8-33.06,33.06v255.94c0,18.26,14.8,33.07,33.06,33.07H369.63c18.26,0,33.06-14.82,33.06-33.07v-255.94c0-18.26-14.8-33.06-33.06-33.06Zm-152.53,174.89v61.9h-.05c-.4,7.4-7.27,13.28-15.71,13.28s-15.31-5.87-15.71-13.28h-.05v-61.9c-7.81-5.17-12.96-14.1-12.96-24.22,0-16.01,12.86-28.97,28.72-28.97s28.72,12.97,28.72,28.97c0,10.12-5.15,19.05-12.96,24.22Z"/>
</svg>